<?xml version="1.0" encoding="UTF-8" standalone="no"?>
<svg
   xmlns:dc="http://purl.org/dc/elements/1.1/"
   xmlns:cc="http://creativecommons.org/ns#"
   xmlns:rdf="http://www.w3.org/1999/02/22-rdf-syntax-ns#"
   xmlns:svg="http://www.w3.org/2000/svg"
   xmlns="http://www.w3.org/2000/svg"
   xmlns:xlink="http://www.w3.org/1999/xlink"
   xmlns:sodipodi="http://sodipodi.sourceforge.net/DTD/sodipodi-0.dtd"
   xmlns:inkscape="http://www.inkscape.org/namespaces/inkscape"
   width="1024"
   height="1024"
   version="1.1"
   id="svg11"
   sodipodi:docname="blackfriars.svg"
   inkscape:version="1.0.2 (e86c870879, 2021-01-15)">
  <metadata
     id="metadata15">
    <rdf:RDF>
      <cc:Work
         rdf:about="">
        <dc:format>image/svg+xml</dc:format>
        <dc:type
           rdf:resource="http://purl.org/dc/dcmitype/StillImage" />
        <dc:title />
      </cc:Work>
    </rdf:RDF>
  </metadata>
  <sodipodi:namedview
     pagecolor="#ffffff"
     bordercolor="#666666"
     borderopacity="1"
     objecttolerance="10"
     gridtolerance="10"
     guidetolerance="10"
     inkscape:pageopacity="0"
     inkscape:pageshadow="2"
     inkscape:window-width="1597"
     inkscape:window-height="870"
     id="namedview13"
     showgrid="false"
     inkscape:zoom="0.54291956"
     inkscape:cx="511.1786"
     inkscape:cy="554.15199"
     inkscape:window-x="0"
     inkscape:window-y="27"
     inkscape:window-maximized="0"
     inkscape:current-layer="svg11"
     inkscape:document-rotation="0"
     inkscape:pagecheckerboard="0" />
  <defs
     id="defs5">
    <linearGradient
       inkscape:collect="always"
       id="linearGradient4377">
      <stop
         style="stop-color:#0b1536;stop-opacity:1"
         offset="0"
         id="stop4373" />
      <stop
         style="stop-color:#331a1c;stop-opacity:0"
         offset="1"
         id="stop4375" />
    </linearGradient>
    <linearGradient
       inkscape:collect="always"
       id="linearGradient4179">
      <stop
         style="stop-color:#7d6d78;stop-opacity:1"
         offset="0"
         id="stop4175" />
      <stop
         style="stop-color:#362d41;stop-opacity:1"
         offset="0.7155543"
         id="stop4181" />
      <stop
         style="stop-color:#2d222e;stop-opacity:1"
         offset="1"
         id="stop4177" />
    </linearGradient>
    <linearGradient
       inkscape:collect="always"
       id="linearGradient3311">
      <stop
         style="stop-color:#326bfa;stop-opacity:1"
         offset="0"
         id="stop3307" />
      <stop
         style="stop-color:#297cff;stop-opacity:1"
         offset="0.46730253"
         id="stop3317" />
      <stop
         style="stop-color:#2d61ea;stop-opacity:1"
         offset="1"
         id="stop3309" />
    </linearGradient>
    <linearGradient
       inkscape:collect="always"
       id="linearGradient3303">
      <stop
         style="stop-color:#fa616a;stop-opacity:1"
         offset="0"
         id="stop3299" />
      <stop
         style="stop-color:#e51230;stop-opacity:1"
         offset="0.59472674"
         id="stop3315" />
      <stop
         style="stop-color:#ed4546;stop-opacity:1"
         offset="1"
         id="stop3301" />
    </linearGradient>
    <pattern
       inkscape:collect="always"
       xlink:href="#Strips1_4white"
       id="pattern3279"
       patternTransform="matrix(0,-10.984023,-34.153987,5.2049657e-7,483.14577,-80.781245)" />
    <pattern
       inkscape:collect="always"
       patternUnits="userSpaceOnUse"
       width="5"
       height="1"
       patternTransform="translate(0,0) scale(10,10)"
       id="Strips1_4white"
       inkscape:stockid="Stripes 1:4 white">
      <rect
         style="fill:white;stroke:none"
         x="0"
         y="-0.5"
         width="1"
         height="2"
         id="rect1876" />
    </pattern>
    <pattern
       inkscape:collect="always"
       xlink:href="#Strips4_1white"
       id="pattern3089"
       patternTransform="matrix(46.946746,0,0,30.625923,20.457128,2.2418797)" />
    <pattern
       inkscape:collect="always"
       patternUnits="userSpaceOnUse"
       width="1.25"
       height="1"
       patternTransform="translate(0,0) scale(10,10)"
       id="Strips4_1white"
       inkscape:stockid="Stripes 4:1 white">
      <rect
         style="fill:white;stroke:none"
         x="0"
         y="-0.5"
         width="1"
         height="2"
         id="rect1921" />
    </pattern>
    <filter
       id="blur_shadow"
       x="-0.032669999"
       y="-0.032669999"
       width="1.06534"
       height="1.06534"
       inkscape:label="blur_shadow">
      <feGaussianBlur
         stdDeviation="11.2167"
         id="feGaussianBlur2" />
    </filter>
    <filter
       style="color-interpolation-filters:sRGB;"
       inkscape:label="Drop Shadow"
       id="filter1176"
       x="-0.02622036"
       y="-0.026708923"
       width="1.0633659"
       height="1.0645466">
      <feFlood
         flood-opacity="1"
         flood-color="rgb(0,0,0)"
         result="flood"
         id="feFlood1166" />
      <feComposite
         in="flood"
         in2="SourceGraphic"
         operator="out"
         result="composite1"
         id="feComposite1168" />
      <feGaussianBlur
         in="composite1"
         stdDeviation="0.5"
         result="blur"
         id="feGaussianBlur1170" />
      <feOffset
         dx="0.5"
         dy="0.5"
         result="offset"
         id="feOffset1172" />
      <feComposite
         in="offset"
         in2="SourceGraphic"
         operator="atop"
         result="composite2"
         id="feComposite1174" />
    </filter>
    <filter
       style="color-interpolation-filters:sRGB"
       inkscape:label="Colorize"
       id="filter3153"
       x="-0.096645117"
       y="-0.10484588"
       width="1.1966451"
       height="1.2048459">
      <feComposite
         in2="SourceGraphic"
         operator="arithmetic"
         k1="0"
         k2="1"
         result="composite1"
         id="feComposite3139"
         k3="0"
         k4="0" />
      <feColorMatrix
         in="composite1"
         values="1"
         type="saturate"
         result="colormatrix1"
         id="feColorMatrix3141" />
      <feFlood
         flood-opacity="1"
         flood-color="rgb(255,255,255)"
         result="flood1"
         id="feFlood3143" />
      <feBlend
         in="flood1"
         in2="colormatrix1"
         mode="multiply"
         result="blend1"
         id="feBlend3145" />
      <feBlend
         in2="blend1"
         mode="screen"
         result="blend2"
         id="feBlend3147" />
      <feColorMatrix
         in="blend2"
         values="1"
         type="saturate"
         result="colormatrix2"
         id="feColorMatrix3149" />
      <feComposite
         in="colormatrix2"
         in2="SourceGraphic"
         operator="in"
         result="fbSourceGraphic"
         id="feComposite3151" />
      <feColorMatrix
         result="fbSourceGraphicAlpha"
         in="fbSourceGraphic"
         values="0 0 0 -1 0 0 0 0 -1 0 0 0 0 -1 0 0 0 0 1 0"
         id="feColorMatrix1984" />
      <feComposite
         in2="fbSourceGraphic"
         id="feComposite1986"
         operator="arithmetic"
         k1="0"
         k2="1"
         result="composite1"
         in="fbSourceGraphic"
         k3="0"
         k4="0" />
      <feColorMatrix
         id="feColorMatrix1988"
         in="composite1"
         values="1"
         type="saturate"
         result="colormatrix1" />
      <feFlood
         id="feFlood1990"
         flood-opacity="1"
         flood-color="rgb(74,64,81)"
         result="flood1" />
      <feBlend
         in2="colormatrix1"
         id="feBlend1992"
         in="flood1"
         mode="multiply"
         result="blend1" />
      <feBlend
         in2="blend1"
         id="feBlend1994"
         mode="screen"
         result="blend2" />
      <feColorMatrix
         id="feColorMatrix1996"
         in="blend2"
         values="1"
         type="saturate"
         result="colormatrix2" />
      <feComposite
         in2="fbSourceGraphic"
         id="feComposite1998"
         in="colormatrix2"
         operator="in"
         result="composite2" />
    </filter>
    <filter
       style="color-interpolation-filters:sRGB"
       inkscape:label="Colorize"
       id="filter3153-2">
      <feComposite
         in2="SourceGraphic"
         operator="arithmetic"
         k1="0"
         k2="1"
         result="composite1"
         id="feComposite3139-7"
         k3="0"
         k4="0" />
      <feColorMatrix
         in="composite1"
         values="1"
         type="saturate"
         result="colormatrix1"
         id="feColorMatrix3141-0" />
      <feFlood
         flood-opacity="1"
         flood-color="rgb(226,217,209)"
         result="flood1"
         id="feFlood3143-9" />
      <feBlend
         in="flood1"
         in2="colormatrix1"
         mode="multiply"
         result="blend1"
         id="feBlend3145-3" />
      <feBlend
         in2="blend1"
         mode="screen"
         result="blend2"
         id="feBlend3147-6" />
      <feColorMatrix
         in="blend2"
         values="1"
         type="saturate"
         result="colormatrix2"
         id="feColorMatrix3149-0" />
      <feComposite
         in="colormatrix2"
         in2="SourceGraphic"
         operator="in"
         result="composite2"
         id="feComposite3151-6" />
    </filter>
    <filter
       style="color-interpolation-filters:sRGB"
       inkscape:label="Colorize"
       id="filter3153-7">
      <feComposite
         in2="SourceGraphic"
         operator="arithmetic"
         k1="0"
         k2="1"
         result="composite1"
         id="feComposite3139-9"
         k3="0"
         k4="0" />
      <feColorMatrix
         in="composite1"
         values="1"
         type="saturate"
         result="colormatrix1"
         id="feColorMatrix3141-2" />
      <feFlood
         flood-opacity="1"
         flood-color="rgb(226,217,209)"
         result="flood1"
         id="feFlood3143-0" />
      <feBlend
         in="flood1"
         in2="colormatrix1"
         mode="multiply"
         result="blend1"
         id="feBlend3145-2" />
      <feBlend
         in2="blend1"
         mode="screen"
         result="blend2"
         id="feBlend3147-3" />
      <feColorMatrix
         in="blend2"
         values="1"
         type="saturate"
         result="colormatrix2"
         id="feColorMatrix3149-7" />
      <feComposite
         in="colormatrix2"
         in2="SourceGraphic"
         operator="in"
         result="composite2"
         id="feComposite3151-5" />
    </filter>
    <linearGradient
       inkscape:collect="always"
       xlink:href="#linearGradient3311"
       id="linearGradient3313"
       x1="136.8743"
       y1="478.62286"
       x2="890.74884"
       y2="540.93146"
       gradientUnits="userSpaceOnUse"
       gradientTransform="translate(0,-10.138625)" />
    <filter
       style="color-interpolation-filters:sRGB;"
       inkscape:label="Drop Shadow"
       id="filter4151">
      <feFlood
         flood-opacity="0.54776219703231654"
         flood-color="rgb(0,0,0)"
         result="flood"
         id="feFlood4141" />
      <feComposite
         in="flood"
         in2="SourceGraphic"
         operator="in"
         result="composite1"
         id="feComposite4143" />
      <feGaussianBlur
         in="composite1"
         stdDeviation="6.4688766632669212"
         result="blur"
         id="feGaussianBlur4145" />
      <feOffset
         dx="6.3614081996435061"
         dy="7.3970692680481278"
         result="offset"
         id="feOffset4147" />
      <feComposite
         in="SourceGraphic"
         in2="offset"
         operator="over"
         result="composite2"
         id="feComposite4149" />
    </filter>
    <radialGradient
       inkscape:collect="always"
       xlink:href="#linearGradient3303"
       id="radialGradient4153"
       cx="401.10617"
       cy="299.40186"
       fx="401.10617"
       fy="299.40186"
       r="356.42697"
       gradientUnits="userSpaceOnUse"
       gradientTransform="matrix(-1.3921544,0.40622424,-0.4391979,-1.5051568,1142.8901,556.49397)" />
    <radialGradient
       inkscape:collect="always"
       xlink:href="#linearGradient4179"
       id="radialGradient4161"
       cx="132.85187"
       cy="154.19156"
       fx="132.85187"
       fy="154.19156"
       r="494.40002"
       gradientUnits="userSpaceOnUse"
       gradientTransform="matrix(-1.4183495,0.39191258,-0.41988897,-1.5196439,677.44919,409.98935)" />
    <linearGradient
       inkscape:collect="always"
       xlink:href="#linearGradient4377"
       id="linearGradient4379"
       x1="506.69299"
       y1="516.8421"
       x2="524.21924"
       y2="760.27423"
       gradientUnits="userSpaceOnUse"
       gradientTransform="translate(-6.5569401e-7,-10.138625)" />
  </defs>
  <path
     d="M924 355.412c0-9.782 0-18.35-.056-28.133-.049-8.241-.144-16.48-.368-24.716-.484-17.954-1.543-36.061-4.736-53.813-3.238-18.01-8.526-34.77-16.859-51.133a171.963 171.963 0 00-31.661-43.559 172.06 172.06 0 00-43.574-31.64c-16.381-8.335-33.159-13.621-51.188-16.858-17.755-3.188-35.867-4.245-53.82-4.73-8.243-.223-16.485-.317-24.73-.368-9.788-.06-19.576-.055-29.364-.055L553.997 100h-84.999l-111.637.407c-9.807 0-19.614-.005-29.421.055-8.262.051-16.52.145-24.778.368-17.995.485-36.148 1.543-53.945 4.735-18.053 3.236-34.857 8.52-51.259 16.849a172.405 172.405 0 00-43.667 31.644 171.994 171.994 0 00-31.718 43.551c-8.356 16.372-13.654 33.143-16.9 51.162-3.196 17.746-4.255 35.846-4.742 53.792-.222 8.237-.318 16.476-.368 24.716-.06 9.784-.563 21.937-.563 31.72v195.999l.508 112.429c0 9.796-.004 19.592.055 29.388.05 8.252.146 16.502.369 24.751.486 17.976 1.547 36.109 4.746 53.886 3.245 18.032 8.542 34.818 16.891 51.201a172.24 172.24 0 0031.722 43.619 172.444 172.444 0 0043.659 31.684c16.412 8.346 33.224 13.639 51.288 16.88 17.789 3.193 35.936 4.252 53.924 4.737 8.258.223 16.517.318 24.779.368 9.807.059 19.613.059 29.42.059h310.283c9.788 0 19.576 0 29.364-.059 8.245-.05 16.487-.145 24.73-.368 17.96-.486 36.078-1.546 53.841-4.741 18.018-3.241 34.788-8.532 51.159-16.873a172.004 172.004 0 0043.582-31.687 172.23 172.23 0 0031.659-43.612c8.337-16.391 13.625-33.184 16.865-51.229 3.19-17.77 4.248-35.896 4.733-53.865.223-8.25.318-16.5.367-24.751.056-9.796.056-19.592.056-29.388V355.412z"
     fill="rgba(0,0,0,0.3)"
     filter="url(#blur_shadow)"
     transform="translate(0 10)"
     id="path7"
     style="stroke-width:1.0015748;stroke-miterlimit:4;stroke-dasharray:none;opacity:0.37;filter:url(#blur_shadow)"
     inkscape:label="shadow" />
  <path
     d="m 924.00001,355.412 c 0,-9.782 0,-18.35 -0.056,-28.133 -0.049,-8.241 -0.144,-16.48 -0.368,-24.716 -0.484,-17.954 -1.543,-36.061 -4.736,-53.813 -3.23805,-18.01 -8.52605,-34.77 -16.85905,-51.133 a 171.963,171.963 0 0 0 -31.661,-43.559 172.06,172.06 0 0 0 -43.574,-31.64 c -16.381,-8.335 -33.159,-13.621 -51.188,-16.858 -17.755,-3.188 -35.867,-4.245 -53.82,-4.73 -8.243,-0.223 -16.485,-0.317 -24.73,-0.368 -9.788,-0.06 -19.576,-0.055 -29.364,-0.055 L 553.997,100 h -84.999 l -111.637,0.407 c -9.807,0 -19.614,-0.005 -29.421,0.055 -8.262,0.051 -16.52,0.145 -24.778,0.368 -17.995,0.485 -36.148,1.543 -53.945,4.735 -18.053,3.236 -34.857,8.52 -51.259,16.849 a 172.405,172.405 0 0 0 -43.667,31.644 171.994,171.994 0 0 0 -31.718,43.551 c -8.356,16.372 -13.654,33.143 -16.9,51.162 -3.196,17.746 -4.255,35.846 -4.742,53.792 -0.222,8.237 -0.318,16.476 -0.368,24.716 -0.06,9.784 -0.563,21.937 -0.563,31.72 v 195.999 l 0.508,112.429 c 0,9.796 -0.004,19.592 0.055,29.388 0.05,8.252 0.146,16.502 0.369,24.751 0.486,17.976 1.547,36.109 4.746,53.886 3.245,18.032 8.542,34.818 16.891,51.201 a 172.24,172.24 0 0 0 31.722,43.619 172.444,172.444 0 0 0 43.659,31.684 c 16.412,8.346 33.224,13.639 51.288,16.88 17.789,3.193 35.936,4.252 53.924,4.737 8.258,0.223 16.517,0.318 24.779,0.368 9.807,0.059 19.613,0.059 29.42,0.059 h 310.28296 c 9.788,0 19.576,0 29.364,-0.059 8.245,-0.05 16.487,-0.145 24.73,-0.368 17.96,-0.486 36.078,-1.546 53.841,-4.741 18.018,-3.241 34.788,-8.532 51.159,-16.873 a 172.004,172.004 0 0 0 43.582,-31.687 172.23,172.23 0 0 0 31.659,-43.612 c 8.337,-16.391 13.625,-33.184 16.86505,-51.229 3.19,-17.77 4.248,-35.896 4.733,-53.865 0.223,-8.25 0.318,-16.5 0.367,-24.751 0.056,-9.796 0.056,-19.592 0.056,-29.388 z"
     fill="#fff"
     id="path9-9"
     style="mix-blend-mode:normal;fill:url(#radialGradient4161);fill-opacity:1;stroke:none;stroke-opacity:1;filter:url(#filter3153-7)"
     inkscape:label="plate" />
  <path
     style="color:#000000;font-style:normal;font-variant:normal;font-weight:normal;font-stretch:normal;font-size:medium;line-height:normal;font-family:sans-serif;font-variant-ligatures:normal;font-variant-position:normal;font-variant-caps:normal;font-variant-numeric:normal;font-variant-alternates:normal;font-variant-east-asian:normal;font-feature-settings:normal;font-variation-settings:normal;text-indent:0;text-align:start;text-decoration:none;text-decoration-line:none;text-decoration-style:solid;text-decoration-color:#000000;letter-spacing:normal;word-spacing:normal;text-transform:none;writing-mode:lr-tb;direction:ltr;text-orientation:mixed;dominant-baseline:auto;baseline-shift:baseline;text-anchor:start;white-space:normal;shape-padding:0;shape-margin:0;inline-size:0;clip-rule:nonzero;display:inline;overflow:visible;visibility:visible;opacity:1;isolation:auto;mix-blend-mode:normal;color-interpolation:sRGB;color-interpolation-filters:linearRGB;solid-color:#000000;solid-opacity:1;vector-effect:none;fill:url(#radialGradient4153);fill-opacity:1;fill-rule:nonzero;stroke:none;stroke-width:7;stroke-linecap:butt;stroke-linejoin:miter;stroke-miterlimit:4;stroke-dasharray:none;stroke-dashoffset:0;stroke-opacity:1;filter:url(#filter4151);color-rendering:auto;image-rendering:auto;shape-rendering:auto;text-rendering:auto;enable-background:accumulate;stop-color:#000000;stop-opacity:1"
     d="m 512.58203,208.0069 c -163.38992,0 -297.02344,133.63352 -297.02344,297.02344 0,163.38993 133.63352,297.02149 297.02344,297.02149 163.38993,0 297.02149,-133.63156 297.02149,-297.02149 0,-163.38992 -133.63156,-297.02344 -297.02149,-297.02344 z m 0,110 c 103.94151,0 187.02149,83.08193 187.02149,187.02344 0,103.94151 -83.07998,187.02149 -187.02149,187.02149 -103.94151,0 -187.02344,-83.07998 -187.02344,-187.02149 0,-103.94151 83.08193,-187.02344 187.02344,-187.02344 z"
     id="path3208"
     inkscape:label="circle" />
  <path
     style="fill:url(#linearGradient4379);fill-opacity:1;stroke:none;stroke-width:1;stroke-linecap:butt;stroke-linejoin:miter;stroke-miterlimit:4;stroke-dasharray:none;stroke-opacity:1"
     d="M 131.30713,587.12761 270.59896,897.1367 779.32997,908.45786 923.99027,693.69648 924.15989,554.32017 895.17188,413.40513 Z"
     id="path4363"
     sodipodi:nodetypes="ccccccc"
     inkscape:label="dropshadow" />
  <rect
     style="opacity:1;fill:url(#linearGradient3313);fill-opacity:1;stroke:none;stroke-width:20;stroke-miterlimit:4;stroke-dasharray:none;stroke-opacity:1;paint-order:normal"
     id="rect3212"
     width="763.86475"
     height="173.72247"
     x="131.30713"
     y="413.40512"
     inkscape:label="rect" />
</svg>
